<svg role="img" aria-labelledby="uniqueTitle" viewBox="0 0 208 181" fill="none" xmlns="http://www.w3.org/2000/svg">

  <title id="uniqueTitle">Gráfico candle PeerBR</title>

  <rect x="3.79906" y="50.1067" width="3.79875" height="88.1493" fill="white" fill-opacity="0.2"/>
  <rect x="-0.000244141" y="103.924" width="37.1155" height="11.3963" rx="5.69813" transform="rotate(-90 -0.000244141 103.924)" fill="#89D85D"/>
  <rect x="65" y="56" width="3" height="96" fill="white" fill-opacity="0.2"/>
  <rect x="60.7792" y="148.463" width="44.5386" height="11.3963" rx="5.69813" transform="rotate(-90 60.7792 148.463)" fill="#89D85D"/>
  <rect x="34.1866" y="37.1167" width="3.79875" height="114.13" fill="white" fill-opacity="0.2"/>
  <rect x="30.3895" y="133.617" width="47.3222" height="11.3963" rx="5.69813" transform="rotate(-90 30.3895 133.617)" fill="#FF5F56"/>
  <rect x="94.9999" y="46" width="4" height="98" fill="white" fill-opacity="0.2"/>
  <rect x="91.1698" y="130.833" width="63.0963" height="11.3963" rx="5.69813" transform="rotate(-90 91.1698 130.833)" fill="#FF5F56"/>
  <rect x="170.944" y="27.8362" width="3.79875" height="153.101" fill="white" fill-opacity="0.2"/>
  <rect x="167.145" y="130.832" width="81.6541" height="11.3963" rx="5.69813" transform="rotate(-90 167.145 130.832)" fill="#FF5F56"/>
  <rect x="132.957" y="18.5586" width="3.79875" height="134.544" fill="white" fill-opacity="0.2"/>
  <rect x="129.158" y="86.2942" width="46.3944" height="11.3963" rx="5.69813" transform="rotate(-90 129.158 86.2942)" fill="#89D85D"/>
  <rect x="199.436" width="3.79875" height="90.005" fill="white" fill-opacity="0.2"/>
  <rect x="195.636" y="47.3223" width="31.5482" height="11.3963" rx="5.69813" transform="rotate(-90 195.636 47.3223)" fill="#89D85D"/>
</svg>
